<svg width="22" height="22" viewBox="0 0 22 22" fill="none" xmlns="http://www.w3.org/2000/svg">
<g clip-path="url(#clip0)">
<path d="M14.6668 20.1667V16.6192C14.7012 16.1821 14.6422 15.7426 14.4936 15.3301C14.345 14.9176 14.1103 14.5415 13.8052 14.2267C16.6835 13.9058 19.7085 12.815 19.7085 7.80998C19.7083 6.53016 19.216 5.29942 18.3335 4.37248C18.7514 3.25278 18.7218 2.01514 18.251 0.91665C18.251 0.91665 17.1693 0.595817 14.6668 2.27332C12.5658 1.7039 10.3512 1.7039 8.25016 2.27332C5.74766 0.595817 4.666 0.91665 4.666 0.91665C4.19517 2.01514 4.16563 3.25278 4.5835 4.37248C3.69445 5.30629 3.20164 6.54816 3.2085 7.83748C3.2085 12.8058 6.2335 13.8967 9.11183 14.2542C8.81024 14.5658 8.57765 14.9374 8.4292 15.3449C8.28074 15.7524 8.21974 16.1865 8.25016 16.6192V20.1667M8.25016 17.4167C3.66683 18.7917 3.66683 15.125 1.8335 14.6667L8.25016 17.4167Z" stroke="#FAFEFF" stroke-width="2" stroke-linecap="round" stroke-linejoin="round"/>
</g>
<defs>
<clipPath id="clip0">
<rect width="22" height="22" fill="white"/>
</clipPath>
</defs>
</svg>
